<?xml version="1.0" encoding="utf-8"?>
<!-- Generator: Adobe Illustrator 16.0.3, SVG Export Plug-In . SVG Version: 6.00 Build 0)  -->
<!DOCTYPE svg PUBLIC "-//W3C//DTD SVG 1.1//EN" "http://www.w3.org/Graphics/SVG/1.1/DTD/svg11.dtd">
<svg version="1.1" id="Layer_1" xmlns="http://www.w3.org/2000/svg" xmlns:xlink="http://www.w3.org/1999/xlink" x="0px" y="0px"
	 width="700px" height="232.319px" viewBox="50.987 286.921 700 232.319" enable-background="new 50.987 286.921 700 232.319"
	 xml:space="preserve">
<g>
	
		<linearGradient id="SVGID_1_" gradientUnits="userSpaceOnUse" x1="143.1465" y1="127.7676" x2="525.8068" y2="348.6967" gradientTransform="matrix(1 0 0 -1 -147.6602 630.04)">
		<stop  offset="0" style="stop-color:#4CB3BA"/>
		<stop  offset="0.607" style="stop-color:#009EA9"/>
	</linearGradient>
	<path fill="url(#SVGID_1_)" d="M282.908,315.431v175.697c0,15.531-12.58,28.111-28.111,28.111H79.1
		c-5.646,0-10.917-1.663-15.297-4.521c-1.101-0.705-2.155-1.502-3.139-2.366c-4.637-4.054-7.964-9.581-9.16-15.886
		c-0.116-0.537-0.21-1.075-0.279-1.638c-0.142-1.218-0.236-2.438-0.236-3.701V315.431c0-0.21,0-0.443,0.024-0.655
		c0.328-15.227,12.766-27.457,28.087-27.457h175.697c0.376,0,0.75,0,1.126,0.023c7.87,0.306,14.897,3.842,19.817,9.324
		c0.891,0.983,1.709,2.013,2.411,3.138c1.572,2.32,2.789,4.874,3.586,7.614c0.258,0.842,0.468,1.686,0.634,2.576
		C282.722,311.752,282.908,313.58,282.908,315.431z"/>
	<g>
		<path fill="#F2F2F2" d="M102.76,287.32c-5.43,6-11.76,11.64-19.07,16.77c-9.2,6.37-20.03,11.86-32.7,15.88v-2.95
			c20.71-6.81,36.22-17.52,47.86-29.7H102.76L102.76,287.32z"/>
	</g>
	<g>
		<path fill="#F2F2F2" d="M189.954,286.921c-0.023,0.142-0.071,0.256-0.094,0.398c-3.773,16.069-11.387,37.038-26.8,55.659
			c-6.207,7.497-13.632,14.573-22.653,20.804c-19.797,13.727-47.016,23.262-84.475,23.518h-2.766c-0.726,0-1.451,0.022-2.179,0.048
			v-2.789c0.728-0.023,1.453-0.045,2.203-0.045h2.835c93.962-0.657,122.353-61.189,130.951-97.195
			c0.025-0.142,0.07-0.256,0.094-0.398H189.954L189.954,286.921z"/>
		<path fill="#F2F2F2" d="M105.62,287.32c-44.82,32.8-49.15,87.7-49.59,97.19c-0.05,0.82-0.05,1.32-0.05,1.36
			c0,0.09,0,0.59-0.05,1.43c-0.19,3.87-1.01,15.37-4.94,29.921V404.92c1.62-8.53,2.06-14.9,2.18-17.62v-1.43
			c0-0.04,0-0.54,0.02-1.36c0.38-7.96,3.47-47.88,30.5-80.42c4.9-5.92,10.61-11.59,17.25-16.77H105.62L105.62,287.32z"/>
	</g>
	<g>
		<path fill="#F2F2F2" d="M256.039,286.921c-0.048,0.142-0.094,0.281-0.116,0.421c-4.546,15.508-5.437,27.971-5.575,32.046
			c-0.026,0.843-0.026,1.335-0.026,1.406c0,0.094,0,0.538-0.046,1.407c-0.352,7.963-3.397,47.811-30.43,80.422
			c-6.208,7.447-13.636,14.545-22.653,20.776c-19.82,13.702-47.019,23.283-84.475,23.52h-2.766
			c-23.497,0.14-42.916,4.029-58.965,10.354v-3.067c16.142-6.164,35.608-9.934,59.035-10.099h2.764
			c125.308-0.818,134.092-108.296,134.678-121.906c0.048-0.87,0.048-1.313,0.048-1.407c0-0.071,0-0.563,0.046-1.406
			c0.188-4.075,1.054-16.513,5.504-32.069c0.048-0.117,0.07-0.256,0.118-0.398H256.039L256.039,286.921z"/>
		<path fill="#F2F2F2" d="M282.908,316.46v2.836c-9.907,1.803-20.754,2.833-32.631,2.906h-2.812
			c-125.308,0.842-134.044,108.345-134.678,121.906c-0.046,0.866-0.046,1.313-0.046,1.404c0,0.097,0,0.563-0.022,1.406
			c-0.306,7.311-2.928,41.536-24.319,72.319h-3.466c21.997-30.478,24.669-65.011,25.02-72.319c0.048-0.844,0.048-1.311,0.048-1.406
			c0-0.092,0-0.538,0.022-1.404c0.376-7.918,3.397-47.791,30.384-80.326c6.209-7.473,13.679-14.618,22.653-20.804
			c19.865-13.773,47.087-23.355,84.499-23.59h2.789C262.2,319.319,273.023,318.29,282.908,316.46z"/>
	</g>
	<g>
		<path fill="#F2F2F2" d="M282.908,448.864v5.107c-1.921,2.787-4.006,5.573-6.277,8.291c-6.187,7.449-13.612,14.478-22.537,20.641
			c-19.841,13.847-47.084,23.404-84.545,23.639h-2.811c-26.26,0.188-47.414,5.015-64.468,12.697h-6.629
			c18.249-9.304,41.511-15.296,71.191-15.483h2.741C231.325,503.332,264.775,477.069,282.908,448.864z"/>
		<path fill="#F2F2F2" d="M282.908,380.273v2.811c-105.019,12.137-112.75,107.834-113.334,120.672
			c-0.024,0.819-0.024,1.312-0.024,1.404v1.382c-0.094,2.155-0.398,6.63-1.334,12.697h-2.788c0.937-6.044,1.217-10.542,1.311-12.697
			c0.046-0.818,0.046-1.313,0.046-1.382c0-0.094,0-0.585,0.048-1.404c0.352-7.966,3.373-47.792,30.361-80.354
			c6.209-7.472,13.703-14.597,22.653-20.776C235.682,391.588,256.227,383.297,282.908,380.273z"/>
	</g>
	<g>
		<path fill="#F2F2F2" d="M282.908,458.212v3.35c-25.04,15.576-38.98,37.834-46.758,57.679h-2.974
			c4.498-11.83,11.127-24.575,20.918-36.336c6.161-7.38,13.61-14.432,22.537-20.641C278.644,460.859,280.73,459.5,282.908,458.212z"
			/>
	</g>
	
		<radialGradient id="SVGID_2_" cx="314.0205" cy="174.6382" r="70.994" gradientTransform="matrix(1 0 0 -1 -147.6602 630.04)" gradientUnits="userSpaceOnUse">
		<stop  offset="0.34" style="stop-color:#333333;stop-opacity:0.6"/>
		<stop  offset="1" style="stop-color:#000000"/>
	</radialGradient>
	<path opacity="0.3" fill="url(#SVGID_2_)" enable-background="new    " d="M254.209,406.792c0,53.701-39.326,97.22-87.849,97.22
		c-48.521,0-87.849-43.519-87.849-97.22"/>
	
		<radialGradient id="SVGID_3_" cx="314.6064" cy="226.7607" r="87.8489" gradientTransform="matrix(1 0 0 -1 -147.6602 630.04)" gradientUnits="userSpaceOnUse">
		<stop  offset="0.925" style="stop-color:#FFFFFF"/>
		<stop  offset="1" style="stop-color:#CCCCCC"/>
	</radialGradient>
	<path fill="url(#SVGID_3_)" d="M254.795,403.277c0,48.521-39.325,87.851-87.849,87.851c-48.521,0-87.849-39.328-87.849-87.851
		c0-48.521,39.327-87.847,87.849-87.847C215.47,315.431,254.795,354.756,254.795,403.277z"/>
	
		<linearGradient id="SVGID_4_" gradientUnits="userSpaceOnUse" x1="314.6064" y1="334.1313" x2="314.6064" y2="123.0529" gradientTransform="matrix(1 0 0 -1 -147.6602 630.04)">
		<stop  offset="0.28" style="stop-color:#FFFFFF"/>
		<stop  offset="1" style="stop-color:#666666"/>
	</linearGradient>
	<circle fill="url(#SVGID_4_)" cx="166.946" cy="403.277" r="73.792"/>
	
		<radialGradient id="SVGID_5_" cx="57.394" cy="1239.2363" r="67.9363" gradientTransform="matrix(-1 0 0 1 224.3398 -835.96)" gradientUnits="userSpaceOnUse">
		<stop  offset="0.595" style="stop-color:#666666"/>
		<stop  offset="1" style="stop-color:#333333"/>
	</radialGradient>
	<circle fill="url(#SVGID_5_)" cx="166.946" cy="403.277" r="67.936"/>
	
		<linearGradient id="SVGID_6_" gradientUnits="userSpaceOnUse" x1="314.6069" y1="306.8638" x2="314.6069" y2="149.3912" gradientTransform="matrix(1 0 0 -1 -147.6602 630.04)">
		<stop  offset="0.28" style="stop-color:#FFFFFF"/>
		<stop  offset="1" style="stop-color:#666666"/>
	</linearGradient>
	<path fill="url(#SVGID_6_)" d="M221.179,393.885c-4.428-25.934-27.036-45.658-54.233-45.658c-30.408,0-55.052,24.643-55.052,55.05
		c0,30.409,24.644,55.053,55.052,55.053c9.019,0,17.524-2.155,25.018-6.021c17.827-9.089,30.034-27.643,30.034-49.029
		C221.998,400.068,221.714,396.93,221.179,393.885z M183.368,444.648c-5.084,2.014-10.611,3.139-16.422,3.139
		c-24.575,0-44.509-19.936-44.509-44.51s19.934-44.509,44.509-44.509c20.52,0,37.835,13.914,42.941,32.819
		c1.029,3.724,1.569,7.659,1.569,11.688C211.457,422.041,199.836,438.112,183.368,444.648z"/>
	
		<radialGradient id="SVGID_7_" cx="314.6074" cy="226.7617" r="44.509" gradientTransform="matrix(1 0 0 -1 -147.6602 630.04)" gradientUnits="userSpaceOnUse">
		<stop  offset="0.845" style="stop-color:#1A1A1A"/>
		<stop  offset="0.8853" style="stop-color:#1F1F1F"/>
		<stop  offset="0.9353" style="stop-color:#2F2F2F"/>
		<stop  offset="0.9903" style="stop-color:#484848"/>
		<stop  offset="1" style="stop-color:#4D4D4D"/>
	</radialGradient>
	<path fill="url(#SVGID_7_)" d="M211.457,403.277c0,16.772-9.256,31.368-22.96,38.958c-6.37,3.538-13.727,5.552-21.55,5.552
		c-22.396,0-40.904-16.515-44.042-38.021c-0.303-2.132-0.467-4.287-0.467-6.488c0-1.336,0.068-2.67,0.187-3.981
		c0.938-10.635,5.624-20.193,12.697-27.338c0.091-0.094,0.188-0.21,0.301-0.304c8.039-7.966,19.095-12.884,31.324-12.884
		c14.147,0,26.73,6.584,34.884,16.842c4.823,6.091,8.08,13.495,9.206,21.578c0.091,0.702,0.164,1.405,0.232,2.106
		C211.389,400.605,211.457,401.941,211.457,403.277z"/>
	
		<radialGradient id="SVGID_8_" cx="314.6084" cy="226.7627" r="37.4817" gradientTransform="matrix(1 0 0 -1 -147.6602 630.04)" gradientUnits="userSpaceOnUse">
		<stop  offset="0.845" style="stop-color:#1A1A1A"/>
		<stop  offset="0.8853" style="stop-color:#1F1F1F"/>
		<stop  offset="0.9353" style="stop-color:#2F2F2F"/>
		<stop  offset="0.9903" style="stop-color:#484848"/>
		<stop  offset="1" style="stop-color:#4D4D4D"/>
	</radialGradient>
	<path fill="url(#SVGID_8_)" d="M204.43,403.277c0,20.713-16.771,37.481-37.483,37.481c-20.712,0-37.481-16.77-37.481-37.481
		c0-20.712,16.769-37.481,37.481-37.481C187.659,365.796,204.43,382.565,204.43,403.277z"/>
	<g>
		
			<radialGradient id="SVGID_9_" cx="314.6064" cy="226.7622" r="30.4536" gradientTransform="matrix(1 0 0 -1 -147.6602 630.04)" gradientUnits="userSpaceOnUse">
			<stop  offset="0.845" style="stop-color:#1A1A1A"/>
			<stop  offset="0.8853" style="stop-color:#1F1F1F"/>
			<stop  offset="0.9353" style="stop-color:#2F2F2F"/>
			<stop  offset="0.9903" style="stop-color:#484848"/>
			<stop  offset="1" style="stop-color:#4D4D4D"/>
		</radialGradient>
		<path fill="url(#SVGID_9_)" d="M197.4,403.277c0,16.828-13.626,30.454-30.454,30.454c-16.828,0-30.454-13.626-30.454-30.454
			c0-16.827,13.626-30.453,30.454-30.453C183.774,372.824,197.4,386.45,197.4,403.277z"/>
	</g>
	
		<radialGradient id="SVGID_10_" cx="314.6074" cy="226.7617" r="22.2546" gradientTransform="matrix(1 0 0 -1 -147.6602 630.04)" gradientUnits="userSpaceOnUse">
		<stop  offset="0.845" style="stop-color:#1A1A1A"/>
		<stop  offset="0.8853" style="stop-color:#1F1F1F"/>
		<stop  offset="0.9353" style="stop-color:#2F2F2F"/>
		<stop  offset="0.9903" style="stop-color:#484848"/>
		<stop  offset="1" style="stop-color:#4D4D4D"/>
	</radialGradient>
	<path fill="url(#SVGID_10_)" d="M189.201,403.277c0,12.297-9.96,22.256-22.254,22.256c-12.3,0-22.254-9.959-22.254-22.256
		c0-12.296,9.955-22.254,22.254-22.254C179.241,381.023,189.201,390.981,189.201,403.277z"/>
	
		<radialGradient id="SVGID_11_" cx="314.6074" cy="226.7622" r="17.5698" gradientTransform="matrix(1 0 0 -1 -147.6602 630.04)" gradientUnits="userSpaceOnUse">
		<stop  offset="0.28" style="stop-color:#1A1A1A"/>
		<stop  offset="0.66" style="stop-color:#000000"/>
		<stop  offset="1" style="stop-color:#1A1A1A"/>
	</radialGradient>
	<path fill="url(#SVGID_11_)" d="M184.517,403.277c0,9.707-7.867,17.57-17.57,17.57c-9.709,0-17.57-7.863-17.57-17.57
		c0-9.707,7.861-17.569,17.57-17.569C176.65,385.708,184.517,393.571,184.517,403.277z"/>
	
		<radialGradient id="SVGID_12_" cx="304.0649" cy="321.6382" r="0" gradientTransform="matrix(1 0 0 -1 -147.6602 630.04)" gradientUnits="userSpaceOnUse">
		<stop  offset="0.595" style="stop-color:#666666"/>
		<stop  offset="1" style="stop-color:#000000"/>
	</radialGradient>
	<polygon fill="url(#SVGID_12_)" points="156.405,308.402 156.405,308.402 156.405,308.402 	"/>
	<path opacity="0.2" fill="#D9E4FA" enable-background="new    " d="M211.036,397.188c-7.687,10.121-19.868,16.63-33.549,16.63
		c-23.192,0-42.002-18.717-42.166-41.861c8.057-8.151,19.229-13.188,31.625-13.188C189.479,358.769,208.058,375.471,211.036,397.188
		z"/>
	<path opacity="0.1" fill="#D9E4FA" enable-background="new    " d="M122.858,409.367c7.682-10.12,19.867-16.631,33.547-16.631
		c23.192,0,42.002,18.718,42.167,41.862c-8.06,8.151-19.236,13.188-31.626,13.188C144.408,447.787,125.832,431.085,122.858,409.367z
		"/>
	<path opacity="0.1" fill="#D9E4FA" enable-background="new    " d="M156.405,392.736c0,11.645-9.44,21.083-21.084,21.083
		c-4.64,0-8.95-1.5-12.417-4.053c-0.303-2.133-0.467-4.287-0.467-6.488c0-1.336,0.068-2.672,0.187-3.982
		c0.938-10.635,5.624-20.193,12.697-27.338c0.091-0.094,0.188-0.21,0.301-0.304C147.125,371.817,156.405,381.188,156.405,392.736z"
		/>
	<path fill="#D9E4FA" fill-opacity="0" d="M211.457,403.277c0,16.772-9.256,31.368-22.96,38.958
		c-6.817-7.497-11.009-17.477-11.009-28.417c0-16.915,9.957-31.508,24.343-38.208c4.823,6.091,8.08,13.495,9.206,21.578
		c0.091,0.702,0.164,1.405,0.232,2.106C211.389,400.605,211.457,401.941,211.457,403.277z"/>
	
		<radialGradient id="SVGID_13_" cx="335.6895" cy="247.8457" r="8.1995" gradientTransform="matrix(1 0 0 -1 -147.6602 630.04)" gradientUnits="userSpaceOnUse">
		<stop  offset="0.925" style="stop-color:#FFFFFF"/>
		<stop  offset="1" style="stop-color:#CCCCCC"/>
	</radialGradient>
	<path fill="url(#SVGID_13_)" d="M196.229,382.194c0,4.527-3.674,8.199-8.199,8.199c-4.531,0-8.2-3.672-8.2-8.199
		c0-4.527,3.669-8.199,8.2-8.199C192.556,373.996,196.229,377.667,196.229,382.194z"/>
	
		<radialGradient id="SVGID_14_" cx="291.1812" cy="208.02" r="3.5151" gradientTransform="matrix(1 0 0 -1 -147.6602 630.04)" gradientUnits="userSpaceOnUse">
		<stop  offset="0.925" style="stop-color:#FFFFFF"/>
		<stop  offset="1" style="stop-color:#CCCCCC"/>
	</radialGradient>
	<circle fill="url(#SVGID_14_)" cx="143.521" cy="422.02" r="3.515"/>
	
		<linearGradient id="SVGID_15_" gradientUnits="userSpaceOnUse" x1="613.5156" y1="205.9409" x2="670.2272" y2="304.1681" gradientTransform="matrix(1 0 0 -1 -147.6602 630.04)">
		<stop  offset="0.2245" style="stop-color:#4CB3BA"/>
		<stop  offset="1" style="stop-color:#009EA9"/>
	</linearGradient>
	<path fill="url(#SVGID_15_)" d="M528.526,330.328c-0.058-0.045-0.106-0.08-0.162-0.116c-2.005-1.417-4.17-2.67-6.491-3.736
		c-0.198-0.083-0.408-0.176-0.608-0.259c-4.356-1.791-8.468-2.541-10.563-2.846c-0.259-0.035-0.491-0.057-0.69-0.083
		c-0.246-0.034-0.504-0.057-0.763-0.068c-1.171-0.119-2.341-0.176-3.501-0.176c-7.216,0-16.212,2.494-22.255,9.16v-1.407
		c0-4.31-2.52-6.875-6.735-6.875c-4.356,0-7.169,2.693-7.169,6.875v90.929c0,4.465,3.573,6.808,7.098,6.808
		c3.525,0,7.1-2.343,7.1-6.808v-26.271c5.095,5.188,13.05,8.256,21.963,8.256c22.477,0,38.605-15.695,39.238-38.161
		C545.37,350.652,539.35,338.049,528.526,330.328z M528.727,375.506c-3.726,8.867-12.92,14.595-23.345,14.595
		c-12.708-0.563-21.599-9.115-21.599-20.791v-11.574c0-14.453,11.796-21.046,22.771-21.083c5.482,0.446,10.341,2.237,14.032,5.154
		c6.922,5.774,10.354,13.681,10.201,23.474C530.659,368.688,529.898,372.426,528.727,375.506z"/>
	
		<linearGradient id="SVGID_16_" gradientUnits="userSpaceOnUse" x1="542.3555" y1="305.9258" x2="542.3555" y2="210.6602" gradientTransform="matrix(1 0 0 -1 -147.6602 630.04)">
		<stop  offset="0" style="stop-color:#808080"/>
		<stop  offset="0.6876" style="stop-color:#333333"/>
	</linearGradient>
	<path fill="url(#SVGID_16_)" d="M435.291,324.656c-2.58,0-4.975,1.433-6.572,3.934l-33.956,53.318l-34.184-53.227
		c-1.415-2.549-3.819-4.068-6.435-4.068c-3.303,0-6.813,2.647-6.813,7.556v84.334c0,4.614,3.572,7.027,7.101,7.027
		c3.529,0,7.102-2.413,7.102-7.027v-60.479l26.59,41.45c1.349,2.544,3.778,4.059,6.518,4.059c2.747,0,5.229-1.53,6.584-3.994
		l26.634-41.645v60.609c0,4.614,3.571,7.027,7.101,7.027c3.527,0,7.103-2.413,7.103-7.027v-84.334
		C442.061,327.237,438.654,324.656,435.291,324.656z"/>
	
		<linearGradient id="SVGID_17_" gradientUnits="userSpaceOnUse" x1="753.5527" y1="303.583" x2="753.5527" y2="216.9032" gradientTransform="matrix(1 0 0 -1 -147.6602 630.04)">
		<stop  offset="0" style="stop-color:#808080"/>
		<stop  offset="0.6876" style="stop-color:#333333"/>
	</linearGradient>
	<path fill="url(#SVGID_17_)" d="M603.405,325.581h-31.919c-4.683,0-8.491,3.546-8.491,7.907v80.672c0,4.365,3.89,8.053,8.491,8.053
		h31.919c31.183,0,45.388-25.045,45.388-48.315S634.588,325.581,603.405,325.581z M603.405,409.182h-26.354v-70.717h26.354
		c21.426,0,31.186,18.366,31.186,35.433C634.591,390.89,624.831,409.182,603.405,409.182z"/>
	
		<linearGradient id="SVGID_18_" gradientUnits="userSpaceOnUse" x1="853.9727" y1="304.3643" x2="853.9727" y2="213.6987" gradientTransform="matrix(1 0 0 -1 -147.6602 630.04)">
		<stop  offset="0" style="stop-color:#808080"/>
		<stop  offset="0.6876" style="stop-color:#333333"/>
	</linearGradient>
	<path fill="url(#SVGID_18_)" d="M709.988,367.064l-2.203-0.19c-18.667-1.448-30.003-3.088-30.003-13.621
		c0-12.669,20.059-15.52,27.086-15.52c11.069,0,25.077,2.069,28.993,11.983c1.013,2.297,3.313,3.669,6.151,3.669
		c2.636,0,5.184-1.219,6.488-3.104c1.086-1.567,1.287-3.486,0.571-5.396c-6.549-17.771-26.646-21.5-42.352-21.5
		c-20.809,0-41.873,10.208-41.873,29.722c0,23.613,24.113,25.535,43.486,27.079l0.853,0.071c18.053,1.471,29.013,3.097,29.013,13.26
		c0,16.363-26.942,16.836-30.014,16.836c-7.756,0-26.18-1.314-30.069-13.475c-0.627-2.942-3.214-4.836-6.625-4.836
		c-2.673,0-5.213,1.156-6.633,3.016c-1.157,1.515-1.507,3.42-0.976,5.365c4.869,17.705,26.908,23.986,44.303,23.986
		c20.666,0,44.802-8.131,44.802-31.04C750.988,370.591,729.205,368.718,709.988,367.064z"/>
	<g>
		<path d="M361.36,462.84c0.574-0.899,1.725-0.6,1.725,0.449v14.396c0,1.199-1.824,1.199-1.824,0v-11.37l-5.099,7.973
			c-0.4,0.725-1.351,0.725-1.726,0l-5.099-7.949v11.348c0,1.199-1.824,1.199-1.824,0V463.29c0-1.074,1.2-1.35,1.699-0.449
			l6.099,9.498L361.36,462.84z"/>
		<path d="M376.188,465.689c2.823,0.772,4.573,3.073,4.623,6.272v-0.025c0.051,0.55-0.199,1.15-1.225,1.15h-9.873
			c0.325,2.049,2.075,3.748,4.574,3.748c1.148,0,2.349-0.299,3.324-1.049c0.875-0.801,2.174,0.225,1.199,1.225
			c-1.149,1.074-2.824,1.523-4.448,1.5c-1.949,0-3.899-0.75-5.074-2.225c-2.699-3.551-1.524-9.299,3.125-10.598
			c1.174-0.351,2.524-0.326,3.749,0L376.188,465.689L376.188,465.689z M369.638,471.563h9.423c-0.175-2.125-1.475-3.75-3.424-4.248
			h0.025c-0.825-0.228-1.851-0.228-2.699,0.022C370.963,467.863,369.788,469.537,369.638,471.563z"/>
		<path d="M390.938,465.488c1.675,0,3.299,0.701,4.049,2.024v-4.975c0-1.148,1.823-1.148,1.823,0v15.098
			c0,0.549-0.35,0.875-0.925,0.875s-0.85-0.326-0.85-0.875v-1.176c-0.851,1.551-2.601,2.199-4.1,2.199
			c-0.774,0-1.625-0.148-2.398-0.476l0.025,0.025c-2.725-1.125-4.1-3.6-4.024-6.498
			C384.638,468.164,387.188,465.488,390.938,465.488z M394.986,473.037v-1.976c0-2.198-1.7-3.747-3.975-3.85
			c-1.774,0-3.549,0.951-4.273,2.676c-0.2,0.523-0.351,1.199-0.375,1.851c-0.025,1.623,0.5,3.123,1.85,4.248
			c0.726,0.573,1.625,0.875,2.574,0.948C393.061,476.936,394.986,475.486,394.986,473.037z"/>
		<path d="M403.588,463.764c0,1.125-1.875,1.15-1.875,0v-1.123c0-1.149,1.875-1.149,1.875,0V463.764z M401.738,466.463
			c0-1.074,1.824-1.1,1.824-0.022v11.271c0,1.1-1.824,1.074-1.824,0V466.463z"/>
		<path d="M413.861,466.963c-2.726,0-4.574,2.226-4.574,5.074c0,1.125,0.324,2.399,1.074,3.299c0.875,1.076,2.25,1.65,3.6,1.65
			c1.324,0,2.773-0.449,3.648-1.65c0.625-0.85,2.125,0.125,1.274,1.101c-1.225,1.5-3.1,2.225-4.949,2.225
			c-1.875,0-3.772-0.773-5.022-2.225c-1.049-1.3-1.574-3.074-1.476-4.898c0.199-3.699,2.824-6.223,6.623-6.223
			c1.802,0,3.25,0.6,4.601,2.125c0.725,0.823-0.625,1.873-1.324,1.049C416.385,467.389,415.111,466.963,413.861,466.963z"/>
		<path d="M425.986,465.965c0.823-0.375,1.725-0.5,2.674-0.477c1.426,0.024,3.049,0.477,3.949,1.951v-0.951
			c0-0.523,0.325-0.898,0.899-0.898c0.549,0,0.924,0.375,0.924,0.898v11.098c0,0.551-0.375,0.9-0.924,0.9
			c-0.574,0-0.899-0.351-0.899-0.9v-1.199c-0.726,1.449-2.574,2.273-4.05,2.273c-1.198,0-2.549-0.324-3.6-1.074
			c-1.898-1.299-2.873-3.424-2.799-5.873c0.051-2.524,1.449-4.85,3.85-5.772L425.986,465.965z M432.609,473.037v-1.976
			c0-2.475-1.726-3.747-3.976-3.85c-1.772-0.023-3.571,0.926-4.272,2.676c-0.226,0.523-0.351,1.199-0.375,1.851
			c-0.05,1.623,0.475,3.123,1.823,4.248c0.75,0.573,1.65,0.875,2.574,0.948C430.686,476.936,432.484,475.537,432.609,473.037z"/>
		<path d="M441.211,477.611c0,0.475-0.398,0.85-0.898,0.85c-0.551,0-0.926-0.375-0.926-0.85v-14.996
			c0-0.476,0.375-0.851,0.926-0.851c0.5,0,0.898,0.375,0.898,0.851V477.611z"/>
		<path d="M459.836,478.637c-1.676,0-3.299-0.676-4.049-2v5.373c0,1.15-1.824,1.15-1.824,0v-15.521c0-0.549,0.35-0.875,0.924-0.875
			s0.851,0.326,0.851,0.875v1.176c0.85-1.551,2.6-2.199,4.1-2.199c0.773,0,1.625,0.148,2.398,0.476l-0.025-0.025
			c2.725,1.125,4.1,3.6,4.025,6.498C466.135,475.961,463.584,478.637,459.836,478.637z M455.787,471.088v1.976
			c0,2.198,1.699,3.747,3.973,3.85c1.775,0,3.551-0.951,4.275-2.676c0.199-0.523,0.35-1.199,0.375-1.851
			c0.022-1.623-0.5-3.123-1.851-4.248c-0.725-0.573-1.625-0.875-2.573-0.948C457.711,467.189,455.787,468.639,455.787,471.088z"/>
		<path d="M472.412,467.713c0.799-1.674,2.299-2.123,3.723-2.123c0.576,0,0.951,0.299,0.951,0.873c0,0.551-0.375,0.853-0.951,0.853
			c-2.574,0-3.674,2.049-3.674,4.571v5.648c0,0.524-0.424,0.875-0.898,0.875c-0.551,0-0.926-0.351-0.926-0.875v-11.072
			c0-1.1,1.775-1.199,1.775,0V467.713L472.412,467.713z"/>
		<path d="M487.785,465.689c2.824,0.772,4.574,3.073,4.623,6.272v-0.025c0.051,0.55-0.199,1.15-1.226,1.15h-9.873
			c0.326,2.049,2.076,3.748,4.574,3.748c1.15,0,2.351-0.299,3.324-1.049c0.875-0.801,2.176,0.225,1.201,1.225
			c-1.15,1.074-2.826,1.523-4.449,1.5c-1.949,0-3.9-0.75-5.074-2.225c-2.699-3.551-1.524-9.299,3.125-10.598
			c1.174-0.351,2.523-0.326,3.748,0L487.785,465.689L487.785,465.689z M481.236,471.563h9.424c-0.176-2.125-1.478-3.75-3.426-4.248
			h0.024c-0.824-0.228-1.85-0.228-2.699,0.022C482.561,467.863,481.387,469.537,481.236,471.563z"/>
		<path d="M496.936,471.787c-1.272,0-1.198-1.674,0-1.674h5.05c1.25,0,1.301,1.674,0,1.674H496.936z"/>
		<path d="M507.686,478.361c-0.625,0-1.149-0.5-1.149-1.076v-13.771c0-0.573,0.524-1.049,1.149-1.049h5.449
			c4.974,0,7.447,3.976,7.447,7.947c0,3.975-2.475,7.949-7.447,7.949H507.686z M508.336,476.736h4.799
			c3.748,0,5.623-3.175,5.623-6.324c0-3.148-1.875-6.348-5.623-6.348h-4.799V476.736z"/>
		<path d="M526.561,463.764c0,1.125-1.875,1.15-1.875,0v-1.123c0-1.149,1.875-1.149,1.875,0V463.764z M524.711,466.463
			c0-1.074,1.824-1.1,1.824-0.022v11.271c0,1.1-1.824,1.074-1.824,0V466.463z"/>
		<path d="M534.51,465.965c0.826-0.375,1.726-0.5,2.676-0.477c1.425,0.024,3.05,0.477,3.947,1.951v-0.951
			c0-0.523,0.326-0.898,0.9-0.898c0.551,0,0.926,0.375,0.926,0.898v11.098c0,0.551-0.375,0.9-0.926,0.9c-0.574,0-0.9-0.351-0.9-0.9
			v-1.199c-0.725,1.449-2.574,2.273-4.049,2.273c-1.199,0-2.549-0.324-3.598-1.074c-1.9-1.299-2.875-3.424-2.802-5.873
			c0.052-2.524,1.451-4.85,3.851-5.772L534.51,465.965z M541.133,473.037v-1.976c0-2.475-1.725-3.747-3.973-3.85
			c-1.775-0.023-3.574,0.926-4.275,2.676c-0.225,0.523-0.35,1.199-0.375,1.851c-0.049,1.623,0.478,3.123,1.826,4.248
			c0.75,0.573,1.648,0.875,2.574,0.948C539.209,476.936,541.008,475.537,541.133,473.037z"/>
		<path d="M559.684,477.762c0,3.623-2.75,5.498-6.174,5.498c-1.899,0-3.424-0.449-4.772-1.725c-1-0.976,0.375-2.125,1.225-1.299
			c1.25,0.948,2.148,1.248,3.549,1.248c2.273,0,4.398-1.148,4.398-3.724v-1.35c-0.875,1.574-2.5,2.174-3.998,2.199
			c-0.951,0.024-1.851-0.125-2.699-0.476c-2.326-0.951-3.75-3.225-3.801-5.75c-0.074-2.897,1.274-5.373,4-6.498
			c0.774-0.299,1.6-0.424,2.35-0.424c1.523,0,3.273,0.574,4.101,1.949v-0.951c0-0.549,0.323-0.898,0.897-0.898
			c0.551,0,0.926,0.351,0.926,0.898L559.684,477.762L559.684,477.762z M551.061,468.113h0.025c-1.375,1.125-1.9,2.625-1.85,4.25
			c0.022,0.647,0.147,1.323,0.375,1.848c0.698,1.75,2.498,2.701,4.272,2.676h-0.024c2.25-0.1,4-1.725,4-3.85v-1.976
			c0-1.573-0.65-2.772-2.125-3.424C554.234,466.963,552.436,467.064,551.061,468.113z"/>
		<path d="M575.232,471.012c0-2.299-1.851-3.897-3.873-3.897c-2.425,0-4.699,2-4.699,4.725v5.799c0,0.549-0.324,0.875-0.9,0.875
			c-0.574,0-0.949-0.326-0.949-0.875v-11.196c0-1.15,1.8-1.177,1.8,0.022v1.551c0.899-1.823,2.823-2.6,4.774-2.6
			c2.898,0,5.672,2,5.672,5.598v6.625c0,0.549-0.323,0.875-0.897,0.875c-0.551,0-0.926-0.326-0.926-0.875L575.232,471.012
			L575.232,471.012z"/>
		<path d="M582.66,476.336c-1.125-1.324-1.601-2.924-1.523-4.799c0.25-2.773,1.873-5.098,4.623-5.873
			c0.601-0.176,1.275-0.225,1.9-0.225c0.6,0,1.199,0.049,1.85,0.225c2.724,0.775,4.424,3.074,4.648,5.873
			c0.1,1.875-0.4,3.475-1.5,4.799c-1.226,1.475-3.023,2.25-4.998,2.25C585.66,478.586,583.885,477.811,582.66,476.336z
			 M587.635,467.139c-0.475,0-0.951,0.074-1.324,0.177c-2.1,0.549-3.323,2.498-3.323,4.748c0,1.125,0.35,2.299,1.1,3.174
			c0.873,1.051,2.199,1.649,3.574,1.649c1.35,0,2.723-0.649,3.598-1.649c0.701-0.851,1.101-2.049,1.101-3.123
			c0-2.275-1.226-4.25-3.349-4.799C588.609,467.213,588.109,467.139,587.635,467.139z"/>
		<path d="M599.436,475.211c0.25,1.125,2.199,1.701,4.023,1.701c1.225,0,3.85-0.551,3.85-2.275c0-1.6-1.899-1.674-3.924-1.823
			c-2.699-0.25-5.6-0.476-5.6-3.55c0-2.676,3.049-3.823,5.449-3.823c1.924,0,4.598,0.323,5.473,2.573
			c0.352,1.125-1.373,1.601-1.699,0.65c-0.549-1.451-2.647-1.551-3.772-1.551c-1.449,0-3.625,0.625-3.625,2.174
			c0,1.6,1.85,1.576,3.85,1.725c2.75,0.25,5.674,0.5,5.674,3.625c0,3.148-3.6,3.924-5.674,3.924s-5.273-0.524-5.773-3.022
			C597.385,474.486,599.211,473.963,599.436,475.211z"/>
		<path d="M618.783,465.639c1.125,0,1.125,1.574,0,1.574h-2.726v6.75c0,1.424,0.226,2.924,1.927,2.924
			c0.375,0,0.924-0.125,1.174-0.274c1.051-0.601,1.875,0.875,0.75,1.5c-0.625,0.35-1.25,0.424-1.924,0.424
			c-3,0-3.726-2.199-3.726-4.572v-6.75h-1.649c-1.174,0-1.101-1.574,0-1.574h1.649v-2.897c0-1.201,1.8-1.176,1.8,0v2.897
			L618.783,465.639L618.783,465.639z"/>
		<path d="M625.809,463.764c0,1.125-1.873,1.15-1.873,0v-1.123c0-1.149,1.873-1.149,1.873,0V463.764z M623.959,466.463
			c0-1.074,1.826-1.1,1.826-0.022v11.271c0,1.1-1.826,1.074-1.826,0V466.463z"/>
		<path d="M636.084,466.963c-2.725,0-4.574,2.226-4.574,5.074c0,1.125,0.324,2.399,1.074,3.299c0.875,1.076,2.25,1.65,3.6,1.65
			c1.324,0,2.773-0.449,3.648-1.65c0.625-0.85,2.125,0.125,1.275,1.101c-1.226,1.5-3.101,2.225-4.949,2.225
			c-1.875,0-3.773-0.773-5.023-2.225c-1.051-1.3-1.574-3.074-1.475-4.898c0.199-3.699,2.824-6.223,6.623-6.223
			c1.799,0,3.25,0.6,4.6,2.125c0.726,0.823-0.625,1.873-1.326,1.049C638.607,467.389,637.332,466.963,636.084,466.963z"/>
		<path d="M653.959,474.412c0.65,2.074,3.424,2.522,5.424,2.522c2.125,0,5.424-0.647,5.424-3.174c0-2.174-2.625-2.35-5.373-2.574
			c-3.448-0.274-7.147-0.6-7.147-4.323c0-3.3,3.799-4.773,6.848-4.773c2.625,0,5.898,0.625,6.949,3.476
			c0.375,1-1.326,1.448-1.701,0.6c-0.748-1.9-3.424-2.225-5.223-2.225c-1.676,0-4.924,0.674-4.924,2.948
			c0,2.175,2.5,2.398,5.397,2.625c3.424,0.3,7.099,0.476,7.099,4.224c0,3.823-4.273,5-7.349,5c-2.549,0-6.449-0.875-7.272-3.875
			C651.811,473.762,653.76,473.387,653.959,474.412z"/>
		<path d="M669.186,466.713c-0.45-0.998,1.199-1.85,1.699-0.725l4.824,9.647l4.773-9.672c0.448-0.977,2.1-0.375,1.698,0.674
			l-8.022,15.945c-0.601,1.176-2.174,0.551-1.699-0.623l2.199-4.475L669.186,466.713z"/>
		<path d="M686.633,475.211c0.25,1.125,2.201,1.701,4.025,1.701c1.225,0,3.848-0.551,3.848-2.275c0-1.6-1.897-1.674-3.924-1.823
			c-2.699-0.25-5.598-0.476-5.598-3.55c0-2.676,3.049-3.823,5.448-3.823c1.925,0,4.599,0.323,5.474,2.573
			c0.35,1.125-1.375,1.601-1.699,0.65c-0.551-1.451-2.65-1.551-3.773-1.551c-1.45,0-3.625,0.625-3.625,2.174
			c0,1.6,1.851,1.576,3.851,1.725c2.748,0.25,5.674,0.5,5.674,3.625c0,3.148-3.6,3.924-5.674,3.924s-5.273-0.524-5.773-3.022
			C684.584,474.486,686.408,473.963,686.633,475.211z"/>
		<path d="M705.982,465.639c1.125,0,1.125,1.574,0,1.574h-2.726v6.75c0,1.424,0.226,2.924,1.926,2.924
			c0.375,0,0.925-0.125,1.175-0.274c1.051-0.601,1.875,0.875,0.75,1.5c-0.625,0.35-1.25,0.424-1.925,0.424
			c-3,0-3.725-2.199-3.725-4.572v-6.75h-1.65c-1.174,0-1.1-1.574,0-1.574h1.65v-2.897c0-1.201,1.799-1.176,1.799,0v2.897
			L705.982,465.639L705.982,465.639z"/>
		<path d="M718.482,465.689c2.823,0.772,4.573,3.073,4.623,6.272v-0.025c0.051,0.55-0.199,1.15-1.226,1.15h-9.873
			c0.326,2.049,2.076,3.748,4.574,3.748c1.15,0,2.35-0.299,3.324-1.049c0.875-0.801,2.176,0.225,1.2,1.225
			c-1.149,1.074-2.825,1.523-4.448,1.5c-1.949,0-3.9-0.75-5.074-2.225c-2.699-3.551-1.525-9.299,3.125-10.598
			c1.174-0.351,2.523-0.326,3.748,0L718.482,465.689L718.482,465.689z M711.934,471.563h9.425c-0.177-2.125-1.478-3.75-3.427-4.248
			h0.025c-0.824-0.228-1.85-0.228-2.699,0.022C713.258,467.863,712.084,469.537,711.934,471.563z"/>
		<path d="M748.078,471.012c-0.049-2.147-1.773-3.696-3.873-3.696c-2.625,0-4.699,1.948-4.699,4.821v5.5
			c0,0.549-0.375,0.875-0.926,0.875c-0.549,0-0.924-0.326-0.924-0.875v-6.198c0-1.425-0.574-2.8-1.726-3.523
			c-0.649-0.4-1.375-0.576-2.149-0.576c-2.449,0-4.674,1.875-4.674,4.674v5.625c0,1.148-1.824,1.125-1.824,0v-11.174
			c0-0.475,0.399-0.873,0.899-0.873c0.55,0,0.875,0.398,0.875,0.873v1.726c1-1.8,2.773-2.599,4.699-2.599
			c2.174,0,4.322,1.074,5.072,3.299c0.9-2.225,3.074-3.299,5.299-3.299c2.875,0,5.773,1.924,5.773,5.349v6.698
			c0,0.549-0.375,0.875-0.925,0.875c-0.573,0-0.899-0.326-0.899-0.875L748.078,471.012L748.078,471.012z"/>
	</g>
</g>
</svg>
